<svg xmlns="http://www.w3.org/2000/svg" style="display: none;">
    <defs>
        <symbol xmlns="http://www.w3.org/2000/svg" fill="none" viewBox="0 0 25 24" id="microsoft-logo">
            <path fill="#F25022" d="M11.9 0H.5v11.4h11.4V0Z"></path>
            <path fill="#7FBA00" d="M24.5 0H13.1v11.4h11.4V0Z"></path>
            <path fill="#00A4EF" d="M11.9 12.6H.5V24h11.4V12.6Z"></path>
            <path fill="#FFB900" d="M24.5 12.6H13.1V24h11.4V12.6Z"></path>
        </symbol>
        <symbol xmlns="http://www.w3.org/2000/svg" fill="none" viewBox="0 0 37 36" id="logo">
            <path fill="#414752" d="M0 6a6 6 0 0 1 6-6h24a6 6 0 0 1 6 6v24a6 6 0 0 1-6 6H6a6 6 0 0 1-6-6V6Z"></path>
            <path fill="url(#a)" fill-rule="evenodd" d="M4.5 13v-2c1.325 0 2.252-.328 2.914-.769.668-.445 1.126-1.046 1.442-1.677a6.37 6.37 0 0 0 .564-1.778 6.359 6.359 0 0 0 .08-.772V6s0 .002 1 .002l1-.001v.035c.002.032.004.084.01.152.009.138.03.34.07.587.083.496.247 1.143.564 1.778.316.631.774 1.232 1.442 1.677.662.441 1.589.77 2.914.77v1.998c-1.325 0-2.252.329-2.914.77-.668.445-1.126 1.046-1.442 1.677a6.374 6.374 0 0 0-.564 1.778 6.355 6.355 0 0 0-.08.74v.035s0-.002-1-.002l-1 .001v-.035a6.36 6.36 0 0 0-.08-.739 6.37 6.37 0 0 0-.564-1.778c-.316-.631-.774-1.232-1.442-1.677-.662-.441-1.589-.77-2.914-.77Zm9.917 17H9L23.083 6H28.5L14.417 30Zm8.083-5.25v1.5c.994 0 1.69.246 2.186.576a3.2 3.2 0 0 1 1.08 1.258c.239.476.362.962.424 1.334a4.735 4.735 0 0 1 .06.554V30l.75-.001.75.001V29.972l.007-.114c.007-.103.022-.255.053-.44.062-.372.185-.858.423-1.334a3.2 3.2 0 0 1 1.081-1.258c.497-.33 1.192-.576 2.186-.576v-1.5c-.994 0-1.69-.246-2.186-.576a3.2 3.2 0 0 1-1.08-1.258 4.777 4.777 0 0 1-.424-1.334 4.735 4.735 0 0 1-.06-.554V21l-.75.001-.75-.001V21.028l-.007.114a4.735 4.735 0 0 1-.053.44 4.777 4.777 0 0 1-.423 1.334 3.2 3.2 0 0 1-1.081 1.258c-.497.33-1.192.576-2.186.576Z" clip-rule="evenodd"></path>
            <defs>
            <linearGradient id="a" x1="17.403" x2="17.403" y1="6" y2="30" gradientUnits="userSpaceOnUse">
                <stop stop-color="#8FFFFF"></stop>
                <stop offset="1" stop-color="#5B94FE"></stop>
            </linearGradient>
            </defs>
        </symbol>
        <symbol xmlns="http://www.w3.org/2000/svg" fill="none" viewBox="0 0 24 24" id="eye">
            <path stroke="#000" stroke-width="2" d="M12 5c7.14 0 10.19 5.451 10.91 7-.72 1.549-3.77 7-10.91 7-7.14 0-10.19-5.451-10.91-7C1.81 10.451 4.86 5 12 5Z"></path>
            <circle cx="12" cy="12" r="4" fill="#000"></circle>
        </symbol>
        <symbol xmlns="http://www.w3.org/2000/svg" fill="none" viewBox="0 0 12 7" id="select">
            <path fill="#EBECF0" fill-rule="evenodd" d="M6 4.5 1.5 0 0 1.5l5.5 5.504h1L12 1.5 10.5 0 6 4.5Z" clip-rule="evenodd"></path>
        </symbol>  
        <symbol xmlns="http://www.w3.org/2000/svg" fill="none" viewBox="0 0 20 20" id="is-select">
            <path fill="#0F62FE" fill-rule="evenodd" d="M2.222 0h15.556C19.005 0 20 .995 20 2.222v15.556A2.222 2.222 0 0 1 17.778 20H2.222A2.222 2.222 0 0 1 0 17.778V2.222C0 .995.995 0 2.222 0Zm13.485 7.707a1 1 0 0 0-1.414-1.414L9 11.586 6.707 9.293a1 1 0 0 0-1.414 1.414l3 3a1 1 0 0 0 1.414 0l6-6Z" clip-rule="evenodd"></path>
        </symbol>
        <symbol xmlns="http://www.w3.org/2000/svg" fill="none" viewBox="0 0 20 20" id="not-select">
            <path fill="#0F62FE" fill-rule="evenodd" d="M2 3a1 1 0 0 1 1-1h14a1 1 0 0 1 1 1v14a1 1 0 0 1-1 1H3a1 1 0 0 1-1-1V3Zm1-3a3 3 0 0 0-3 3v14a3 3 0 0 0 3 3h14a3 3 0 0 0 3-3V3a3 3 0 0 0-3-3H3Zm3 9a1 1 0 1 0 0 2h8a1 1 0 1 0 0-2H6Z" clip-rule="evenodd"></path>
        </symbol>
        <symbol xmlns="http://www.w3.org/2000/svg" fill="none" viewBox="0 0 16 16" id="sort-select">
            <path fill="#B8B8B8" d="M6 12h2v1l-3 3-3-3v-1h2V6h2v6ZM10 4H8V3l3-3 3 3v1h-2v6h-2V4Z"></path>
        </symbol>
        <symbol xmlns="http://www.w3.org/2000/svg" fill="none" viewBox="0 0 20 20" id="refresh">
            <path fill="currentColor" fill-rule="evenodd" d="M10 0a10 10 0 0 0-8.309 15.564l-.001.001a11.347 11.347 0 0 0 .273.385c.329.445.71.923 1.03 1.311.209.255.396.478.531.637l.087.102H1a1 1 0 1 0 0 2h5a1 1 0 0 0 1-1v-5a1 1 0 1 0-2 0v2.546a49.206 49.206 0 0 1-.462-.554 26.746 26.746 0 0 1-1.125-1.453A8 8 0 0 1 10 2V0Zm8.23 4.32a10.018 10.018 0 0 0-.195-.274l-.001.001a32.338 32.338 0 0 0-1.027-1.308 51.53 51.53 0 0 0-.531-.637L16.389 2H19a1 1 0 1 0 0-2h-5a1 1 0 0 0-1 1v5a1 1 0 1 0 2 0V3.454c.124.147.285.339.462.554.378.46.812 1.007 1.126 1.454A8 8 0 0 1 10 18v2a10 10 0 0 0 8.309-15.564l.001-.001a13.457 13.457 0 0 0-.08-.115Z" clip-rule="evenodd"></path>
        </symbol>
        <symbol xmlns="http://www.w3.org/2000/svg" fill="none" viewBox="0 0 24 24" id="light-mode">
            <path fill="#EBECF0" d="M12 15c.833 0 1.542-.292 2.125-.875A2.893 2.893 0 0 0 15 12c0-.833-.292-1.542-.875-2.125A2.893 2.893 0 0 0 12 9c-.833 0-1.542.292-2.125.875A2.893 2.893 0 0 0 9 12c0 .833.292 1.542.875 2.125A2.893 2.893 0 0 0 12 15Zm0 2c-1.383 0-2.563-.488-3.537-1.463C7.488 14.563 7 13.383 7 12s.487-2.563 1.463-3.537C9.438 7.488 10.617 7 12 7s2.563.487 3.537 1.463C16.512 9.438 17 10.617 17 12s-.488 2.563-1.463 3.537C14.563 16.512 13.383 17 12 17ZM2 13a.967.967 0 0 1-.712-.287A.968.968 0 0 1 1 12c0-.283.096-.52.288-.713A.967.967 0 0 1 2 11h2c.283 0 .52.096.713.287.191.192.287.43.287.713s-.096.52-.287.713A.967.967 0 0 1 4 13H2Zm18 0a.968.968 0 0 1-.712-.287A.968.968 0 0 1 19 12c0-.283.096-.52.288-.713A.968.968 0 0 1 20 11h2c.283 0 .52.096.712.287.192.192.288.43.288.713s-.096.52-.288.713A.968.968 0 0 1 22 13h-2Zm-8-8a.968.968 0 0 1-.713-.287A.967.967 0 0 1 11 4V2c0-.283.096-.52.287-.712A.968.968 0 0 1 12 1c.283 0 .52.096.713.288.191.191.287.429.287.712v2c0 .283-.096.52-.287.713A.968.968 0 0 1 12 5Zm0 18a.968.968 0 0 1-.713-.288A.968.968 0 0 1 11 22v-2c0-.283.096-.52.287-.712A.968.968 0 0 1 12 19c.283 0 .52.096.713.288.191.191.287.429.287.712v2c0 .283-.096.52-.287.712A.968.968 0 0 1 12 23ZM5.65 7.05 4.575 6a.87.87 0 0 1-.288-.7c.009-.283.105-.525.288-.725.2-.2.442-.3.725-.3s.517.1.7.3L7.05 5.65c.183.2.275.433.275.7 0 .267-.092.5-.275.7a.856.856 0 0 1-.688.288 1.07 1.07 0 0 1-.712-.288ZM18 19.425l-1.05-1.075a1.019 1.019 0 0 1-.275-.713c0-.274.092-.504.275-.687a.856.856 0 0 1 .688-.287c.274.008.512.104.712.287L19.425 18a.87.87 0 0 1 .287.7 1.085 1.085 0 0 1-.287.725c-.2.2-.442.3-.725.3a.908.908 0 0 1-.7-.3ZM16.95 7.05a.856.856 0 0 1-.287-.688 1.07 1.07 0 0 1 .287-.712L18 4.575a.87.87 0 0 1 .7-.288c.283.009.525.105.725.288.2.2.3.442.3.725s-.1.517-.3.7L18.35 7.05c-.2.183-.433.275-.7.275-.267 0-.5-.092-.7-.275ZM4.575 19.425c-.2-.2-.3-.442-.3-.725s.1-.517.3-.7l1.075-1.05c.2-.183.438-.275.712-.275.276 0 .505.092.688.275.2.183.296.413.288.688a1.07 1.07 0 0 1-.288.712L6 19.425a.87.87 0 0 1-.7.287 1.085 1.085 0 0 1-.725-.287Z"></path>
        </symbol>
        <symbol xmlns="http://www.w3.org/2000/svg" fill="none" viewBox="0 0 24 24" id="collapse-menu">
            <path fill="currentColor" fill-rule="evenodd" d="M14.707 5.293a1 1 0 0 0-1.414 0l-6 6a1 1 0 0 0 0 1.414l6 6a1 1 0 0 0 1.414-1.414L10.414 13H22a1 1 0 1 0 0-2H10.414l4.293-4.293a1 1 0 0 0 0-1.414ZM3 18c0 .5.448 1 1 1s1-.5 1-1V6c0-.5-.448-1-1-1s-1 .5-1 1v12Z" clip-rule="evenodd"></path>
        </symbol>
        <symbol xmlns="http://www.w3.org/2000/svg" fill="none" viewBox="0 0 24 24" id="dark-mode">
            <path fill="#252733" d="M12 21c-2.5 0-4.625-.875-6.375-2.625S3 14.499 3 11.998c0-2.5.875-4.624 2.625-6.374A9.106 9.106 0 0 1 7.799 4a8.739 8.739 0 0 1 3.037-.94c.91-.11 1.304 1.116.877 1.927A5.31 5.31 0 0 0 11.1 7.5c0 1.5.525 2.774 1.575 3.825C13.725 12.375 15 12.9 16.5 12.9c.917 0 1.758-.205 2.525-.613.806-.43 2.024-.04 1.915.867a8.76 8.76 0 0 1-.837 2.845c-.425.857-1.001 1.649-1.728 2.376C16.625 20.125 14.5 21 12 21Zm0-2c1.467 0 2.783-.405 3.95-1.213a7.012 7.012 0 0 0 2.55-3.162c-.333.083-.667.15-1 .2-.333.05-.667.075-1 .075-2.05 0-3.796-.721-5.238-2.163C9.821 11.295 9.1 9.55 9.1 7.5c0-.334.025-.667.075-1 .05-.334.117-.667.2-1a7.013 7.013 0 0 0-3.162 2.55C5.404 9.216 5 10.533 5 12c0 1.933.683 3.583 2.05 4.95C8.417 18.316 10.067 19 12 19Z"></path>
        </symbol>
        <symbol xmlns="http://www.w3.org/2000/svg" fill="none" viewBox="0 0 20 20" id="dislike">
            <path fill="#C02" fill-rule="evenodd" d="M8.586 19.166c.641 0 1.24-.32 1.596-.854l1.253-1.88a.84.84 0 0 1 .104-.126l1.652-1.651c.374-.374.65-.828.81-1.322h3.333a1 1 0 0 0 1-1V3.5a1 1 0 0 0-1-1H13.5a1 1 0 0 0-.877.52 3.318 3.318 0 0 0-1.79-.52H5.476a2.5 2.5 0 0 0-2.08 1.113l-.973 1.46a2.5 2.5 0 0 0-.386.976l-.328 1.97a.834.834 0 0 1-.048.172l-.648 1.618a2.5 2.5 0 0 0-.179.929v.928a2.5 2.5 0 0 0 2.5 2.5h4.261l-.81 2.016a2.268 2.268 0 0 0-.117.717v.348c0 1.06.859 1.92 1.919 1.92Zm5.58-13.335v5.835h2.5v-7.5h-2.5v1.665Zm-1.666 0a1.667 1.667 0 0 0-1.666-1.665H5.475a.833.833 0 0 0-.693.372l-.973 1.46a.833.833 0 0 0-.129.325l-.328 1.97a2.5 2.5 0 0 1-.145.517l-.647 1.618a.833.833 0 0 0-.06.31v.928c0 .46.373.834.833.834h5.142a1 1 0 0 1 .939 1.344l-1.05 2.865a.6.6 0 0 0-.03.19v.348a.252.252 0 0 0 .462.14l1.253-1.879c.09-.137.196-.264.312-.38l1.651-1.652c.312-.312.488-.735.488-1.177V5.831Z" clip-rule="evenodd"></path>
        </symbol>
        <symbol xmlns="http://www.w3.org/2000/svg" fill="none" viewBox="0 0 20 20" id="like">
            <path fill="#187A18" fill-rule="evenodd" d="M11.414.833c-.641 0-1.24.321-1.596.855l-1.253 1.88a.833.833 0 0 1-.104.126L6.809 5.345c-.374.374-.65.828-.81 1.322H2.666a1 1 0 0 0-1 1V16.5a1 1 0 0 0 1 1H6.5a1 1 0 0 0 .877-.52c.517.33 1.131.52 1.79.52h5.357a2.5 2.5 0 0 0 2.08-1.113l.974-1.46a2.5 2.5 0 0 0 .386-.976l.328-1.97a.834.834 0 0 1 .048-.172l.648-1.618a2.5 2.5 0 0 0 .178-.928v-.93a2.5 2.5 0 0 0-2.5-2.5h-4.26l.81-2.015c.078-.231.117-.474.117-.717v-.349c0-1.06-.859-1.919-1.919-1.919ZM7.5 14.167c0 .92.746 1.667 1.666 1.667h5.358c.28 0 .54-.14.694-.372l.973-1.46a.833.833 0 0 0 .129-.325l.328-1.97c.03-.177.078-.35.145-.517l.647-1.618a.833.833 0 0 0 .06-.31v-.928a.833.833 0 0 0-.834-.834h-5.141a1 1 0 0 1-.939-1.344l1.05-2.865a.601.601 0 0 0 .03-.19v-.349a.252.252 0 0 0-.462-.14l-1.253 1.88a2.5 2.5 0 0 1-.312.38L7.988 6.525A1.667 1.667 0 0 0 7.5 7.702v6.465ZM5.833 8.334h-2.5v7.5h2.5v-7.5Z" clip-rule="evenodd"></path>
        </symbol>
    </defs>
</svg>


