<svg xmlns="http://www.w3.org/2000/svg" style="display: none;">
    <defs>
        <symbol xmlns="http://www.w3.org/2000/svg" fill="none" viewBox="0 0 25 24" id="microsoft-logo">
            <path fill="#F25022" d="M11.9 0H.5v11.4h11.4V0Z"></path>
            <path fill="#7FBA00" d="M24.5 0H13.1v11.4h11.4V0Z"></path>
            <path fill="#00A4EF" d="M11.9 12.6H.5V24h11.4V12.6Z"></path>
            <path fill="#FFB900" d="M24.5 12.6H13.1V24h11.4V12.6Z"></path>
        </symbol>
        <symbol xmlns="http://www.w3.org/2000/svg" fill="none" viewBox="0 0 37 36" id="logo">
            <path fill="#414752" d="M0 6a6 6 0 0 1 6-6h24a6 6 0 0 1 6 6v24a6 6 0 0 1-6 6H6a6 6 0 0 1-6-6V6Z"></path>
            <path fill="url(#a)" fill-rule="evenodd" d="M4.5 13v-2c1.325 0 2.252-.328 2.914-.769.668-.445 1.126-1.046 1.442-1.677a6.37 6.37 0 0 0 .564-1.778 6.359 6.359 0 0 0 .08-.772V6s0 .002 1 .002l1-.001v.035c.002.032.004.084.01.152.009.138.03.34.07.587.083.496.247 1.143.564 1.778.316.631.774 1.232 1.442 1.677.662.441 1.589.77 2.914.77v1.998c-1.325 0-2.252.329-2.914.77-.668.445-1.126 1.046-1.442 1.677a6.374 6.374 0 0 0-.564 1.778 6.355 6.355 0 0 0-.08.74v.035s0-.002-1-.002l-1 .001v-.035a6.36 6.36 0 0 0-.08-.739 6.37 6.37 0 0 0-.564-1.778c-.316-.631-.774-1.232-1.442-1.677-.662-.441-1.589-.77-2.914-.77Zm9.917 17H9L23.083 6H28.5L14.417 30Zm8.083-5.25v1.5c.994 0 1.69.246 2.186.576a3.2 3.2 0 0 1 1.08 1.258c.239.476.362.962.424 1.334a4.735 4.735 0 0 1 .06.554V30l.75-.001.75.001V29.972l.007-.114c.007-.103.022-.255.053-.44.062-.372.185-.858.423-1.334a3.2 3.2 0 0 1 1.081-1.258c.497-.33 1.192-.576 2.186-.576v-1.5c-.994 0-1.69-.246-2.186-.576a3.2 3.2 0 0 1-1.08-1.258 4.777 4.777 0 0 1-.424-1.334 4.735 4.735 0 0 1-.06-.554V21l-.75.001-.75-.001V21.028l-.007.114a4.735 4.735 0 0 1-.053.44 4.777 4.777 0 0 1-.423 1.334 3.2 3.2 0 0 1-1.081 1.258c-.497.33-1.192.576-2.186.576Z" clip-rule="evenodd"></path>
            <defs>
            <linearGradient id="a" x1="17.403" x2="17.403" y1="6" y2="30" gradientUnits="userSpaceOnUse">
                <stop stop-color="#8FFFFF"></stop>
                <stop offset="1" stop-color="#5B94FE"></stop>
            </linearGradient>
            </defs>
        </symbol>
        <symbol xmlns="http://www.w3.org/2000/svg" fill="none" viewBox="0 0 24 24" id="eye">
            <path stroke="#000" stroke-width="2" d="M12 5c7.14 0 10.19 5.451 10.91 7-.72 1.549-3.77 7-10.91 7-7.14 0-10.19-5.451-10.91-7C1.81 10.451 4.86 5 12 5Z"></path>
            <circle cx="12" cy="12" r="4" fill="#000"></circle>
        </symbol>
        <symbol xmlns="http://www.w3.org/2000/svg" fill="none" viewBox="0 0 12 7" id="select">
            <path fill="#EBECF0" fill-rule="evenodd" d="M6 4.5 1.5 0 0 1.5l5.5 5.504h1L12 1.5 10.5 0 6 4.5Z" clip-rule="evenodd"></path>
        </symbol>  
        <symbol xmlns="http://www.w3.org/2000/svg" fill="none" viewBox="0 0 20 20" id="is-select">
            <path fill="#0F62FE" fill-rule="evenodd" d="M2.222 0h15.556C19.005 0 20 .995 20 2.222v15.556A2.222 2.222 0 0 1 17.778 20H2.222A2.222 2.222 0 0 1 0 17.778V2.222C0 .995.995 0 2.222 0Zm13.485 7.707a1 1 0 0 0-1.414-1.414L9 11.586 6.707 9.293a1 1 0 0 0-1.414 1.414l3 3a1 1 0 0 0 1.414 0l6-6Z" clip-rule="evenodd"></path>
        </symbol>
        <symbol xmlns="http://www.w3.org/2000/svg" fill="none" viewBox="0 0 20 20" id="not-select">
            <path fill="#0F62FE" fill-rule="evenodd" d="M2 3a1 1 0 0 1 1-1h14a1 1 0 0 1 1 1v14a1 1 0 0 1-1 1H3a1 1 0 0 1-1-1V3Zm1-3a3 3 0 0 0-3 3v14a3 3 0 0 0 3 3h14a3 3 0 0 0 3-3V3a3 3 0 0 0-3-3H3Zm3 9a1 1 0 1 0 0 2h8a1 1 0 1 0 0-2H6Z" clip-rule="evenodd"></path>
        </symbol>
    </defs>
</svg>


